<svg version="1.1" id="logo" xmlns="http://www.w3.org/2000/svg" xmlns:xlink="http:/www.w3.org/1999/xlink" x="0px" y="0px"
       width="170px" height="55px" viewBox="130.5 69.5 626 203" enable-background="new 130.5 69.5 626 203" xml:space="preserve">
    <g enable-background="new">
      <path fill="#ffffff" stroke="#ffffff" stroke-width="2" stroke="#ffffff" stroke-width="8" d="M228.507,217.94l-36.96-49.673l-23.582,21.408v28.265h-3.345V95.85h3.345v89.31l59.204-53.687h4.516
        l-37.629,34.452l38.465,52.015H228.507z"/>
      <path fill="#ffffff" stroke="#ffffff" stroke-width="2" d="M281.023,219.613c-5.686,0-11.066-1.2-16.139-3.597c-5.075-2.396-9.507-5.686-13.296-9.867
        c-3.792-4.182-6.803-9.031-9.032-14.551c-2.231-5.519-3.345-11.398-3.345-17.645c0-6.131,1.059-11.874,3.178-17.227
        c2.117-5.352,5.044-10.034,8.78-14.048c3.734-4.015,8.083-7.164,13.046-9.45c4.96-2.284,10.285-3.429,15.972-3.429
        c5.796,0,11.231,1.171,16.307,3.512c5.072,2.342,9.476,5.519,13.212,9.533c3.734,4.015,6.716,8.755,8.947,14.217
        c2.229,5.464,3.345,11.317,3.345,17.561v1.84h-79.441c0.444,5.576,1.757,10.787,3.931,15.638s4.988,9.061,8.446,12.627
        c3.454,3.57,7.442,6.385,11.958,8.446c4.516,2.064,9.282,3.094,14.3,3.094c3.345,0,6.605-0.444,9.783-1.338
        c3.178-0.891,6.16-2.146,8.948-3.763c2.785-1.615,5.239-3.538,7.357-5.771c2.117-2.229,3.789-4.683,5.018-7.358l3.178,0.836
        c-1.229,3.011-2.984,5.771-5.269,8.279c-2.286,2.509-4.961,4.683-8.026,6.522c-3.068,1.84-6.413,3.29-10.035,4.349
        C288.521,219.082,284.813,219.613,281.023,219.613z M318.486,173.117c-0.335-5.795-1.563-11.147-3.68-16.055
        c-2.119-4.905-4.879-9.115-8.277-12.627c-3.402-3.513-7.333-6.271-11.791-8.279c-4.461-2.007-9.256-3.01-14.384-3.01
        c-5.13,0-9.925,1.003-14.383,3.01c-4.461,2.008-8.392,4.795-11.791,8.363c-3.402,3.568-6.104,7.805-8.111,12.71
        c-2.007,4.907-3.178,10.202-3.513,15.888H318.486z"/>
      <path fill="#ffffff" stroke="#ffffff" stroke-width="2" d="M346.918,251.891c1.895,0,3.566-0.141,5.017-0.418c1.448-0.279,2.396-0.697,2.844-1.254
        c0.109-0.225,0.418-0.781,0.92-1.673c0.502-0.894,1.28-2.509,2.341-4.851c1.059-2.341,2.48-5.576,4.266-9.7
        c1.782-4.126,4.123-9.478,7.024-16.055l-40.307-86.801h3.679l38.3,82.62l36.292-82.62h3.679l-51.678,117.909
        c-1.338,3.12-3.178,4.905-5.52,5.352c-2.231,0.557-4.516,0.837-6.856,0.837V251.891z"/>
      <path fill="#ffffff" stroke="#ffffff" stroke-width="2" d="M420.169,174.121c0-6.242,1.059-12.068,3.178-17.477c2.117-5.407,5.072-10.09,8.864-14.049
        c3.789-3.957,8.222-7.08,13.296-9.366c5.072-2.284,10.563-3.429,16.474-3.429c7.359,0,13.908,1.702,19.652,5.101
        c5.741,3.403,10.061,8.169,12.961,14.299l-3.345,1.172c-2.9-5.353-6.998-9.56-12.293-12.628
        c-5.297-3.065-11.121-4.599-17.477-4.599c-5.353,0-10.314,1.061-14.886,3.178c-4.572,2.12-8.587,5.018-12.041,8.697
        c-3.458,3.68-6.162,8.028-8.111,13.045c-1.952,5.018-2.928,10.37-2.928,16.056c0,5.687,1.004,11.096,3.011,16.224
        c2.007,5.13,4.767,9.616,8.279,13.463c3.512,3.847,7.552,6.887,12.125,9.115c4.57,2.231,9.476,3.345,14.718,3.345
        c3.345,0,6.716-0.501,10.118-1.505c3.4-1.004,6.522-2.342,9.366-4.014c2.843-1.673,5.268-3.622,7.275-5.854
        c2.007-2.229,3.345-4.517,4.014-6.857l3.345,1.003c-1.003,2.901-2.592,5.604-4.767,8.112c-2.174,2.509-4.767,4.683-7.776,6.522
        c-3.011,1.84-6.33,3.29-9.951,4.349c-3.625,1.058-7.333,1.589-11.122,1.589c-5.687,0-11.096-1.2-16.224-3.597
        c-5.129-2.396-9.59-5.657-13.379-9.783c-3.792-4.124-6.803-8.948-9.032-14.468C421.282,186.247,420.169,180.367,420.169,174.121z"
        />
    </g>
    <g>
      <path fill="#ffffff" stroke="#ffffff" stroke-width="2" d="M644.914,219.694c-13.492,0-24.531-4.683-33.115-14.049l2.509-2.175c4.458,4.35,9.115,7.584,13.966,9.701
        c4.85,2.119,10.395,3.178,16.641,3.178c8.584,0,15.554-1.84,20.906-5.52c5.352-3.68,8.027-8.863,8.027-15.554
        c0-3.12-0.669-5.713-2.008-7.777c-1.338-2.062-3.289-3.847-5.854-5.353c-2.565-1.504-5.743-2.785-9.533-3.846
        c-3.791-1.059-8.084-2.146-12.877-3.262c-4.684-1.113-8.755-2.146-12.209-3.094c-3.457-0.946-6.33-2.146-8.613-3.596
        c-2.287-1.448-4.014-3.262-5.186-5.436c-1.17-2.175-1.756-4.989-1.756-8.446c0-4.349,0.836-8.054,2.51-11.122
        c1.672-3.065,3.9-5.604,6.689-7.61c2.785-2.007,6.021-3.483,9.7-4.432c3.679-0.946,7.581-1.422,11.707-1.422
        c7.024,0,13.017,1.2,17.979,3.596c4.959,2.399,8.389,5.38,10.285,8.948l-3.01,1.338c-2.119-3.455-5.577-6.076-10.369-7.861
        c-4.796-1.782-9.98-2.676-15.555-2.676c-3.57,0-6.969,0.392-10.202,1.171c-3.235,0.781-6.078,2.007-8.529,3.679
        c-2.454,1.673-4.378,3.821-5.771,6.438c-1.395,2.621-2.09,5.771-2.09,9.45c0,2.901,0.473,5.269,1.422,7.108
        c0.945,1.84,2.424,3.373,4.432,4.6c2.007,1.228,4.57,2.286,7.693,3.178c3.12,0.893,6.799,1.839,11.038,2.843
        c5.127,1.228,9.784,2.399,13.965,3.513c4.181,1.115,7.693,2.508,10.536,4.181c2.844,1.673,5.044,3.708,6.607,6.104
        c1.56,2.398,2.341,5.493,2.341,9.282c0,3.792-0.781,7.22-2.341,10.286c-1.563,3.068-3.737,5.686-6.523,7.86
        c-2.788,2.175-6.188,3.847-10.201,5.018C654.112,219.109,649.707,219.694,644.914,219.694z"/>
      <path fill="#ffffff" stroke="#ffffff" stroke-width="2" d="M732.55,214.008c-1.673,1.116-3.206,1.952-4.599,2.509c-1.396,0.56-3.039,1.087-4.935,1.589
        c-1.897,0.502-4.014,0.753-6.354,0.753c-4.015,0-7.527-1.226-10.537-3.68c-3.011-2.451-4.516-5.687-4.516-9.7v-70.914h-12.543
        v-3.345h12.543v-30.272h3.345v30.272h20.905v3.345h-20.905v70.914c0,3.234,1.226,5.715,3.68,7.442
        c2.451,1.729,5.127,2.593,8.028,2.593c1.895,0,3.679-0.193,5.352-0.586c1.672-0.389,3.148-0.836,4.432-1.338
        c1.281-0.502,2.284-0.975,3.011-1.422c0.724-0.443,1.142-0.724,1.254-0.836L732.55,214.008z"/>
    </g>
    <path id="arrow" fill="none" stroke="#ffffff" stroke-width="8" stroke-miterlimit="10" d="M596.889,173.139l-70.432,40.594
      v-81.191L596.889,173.139z"/>
    <text id="keyc_st_1_" transform="matrix(1 0 0 1 119.7383 217.9404)" display="none" fill="#ffffff" enable-background="new    " font-family="'Raleway-Thin'" font-size="167.2484">keyc </text>
    <text transform="matrix(1 0 0 1 574.6113 218.0215)" display="none" fill="#ffffff" font-family="'Raleway-Thin'" font-size="167.2484">st</text>
    <path id="Polygon_1_1_" display="none" fill="none" stroke="#6E2672" stroke-width="2" stroke-miterlimit="10" d="M565.889,173.139
      l-70.432,40.594v-81.191L565.889,173.139z"/>
  </svg>
