<?xml version="1.0" standalone="no"?>
<!DOCTYPE svg PUBLIC "-//W3C//DTD SVG 20010904//EN"
 "http://www.w3.org/TR/2001/REC-SVG-20010904/DTD/svg10.dtd">
<svg version="1.0" xmlns="http://www.w3.org/2000/svg"
 width="260.000000pt" height="260.000000pt" viewBox="0 0 260.000000 260.000000"
 preserveAspectRatio="xMidYMid meet">
<metadata>
Created by potrace 1.11, written by Peter Selinger 2001-2013
</metadata>
<g transform="translate(0.000000,260.000000) scale(0.100000,-0.100000)"
fill="#000000" stroke="none">
<path d="M330 1299 l0 -1191 23 14 c12 8 478 275 1035 593 556 318 1012 581
1012 584 0 3 -444 260 -987 571 -542 311 -1008 577 -1035 593 l-48 27 0 -1191z
m980 504 c479 -274 870 -500 870 -503 0 -6 -1735 -1000 -1745 -1000 -3 0 -5
450 -5 1000 0 550 2 1000 5 1000 3 0 397 -224 875 -497z"/>
</g>
</svg>
